# xmcd
#
# Track frame offsets:
#	183
#	17340
#	40440
#	52435
#
# Disc length: 930 seconds
#
# Revision: 1
# Processed by: cddbd v1.5.1PL0 Copyright (c) Steve Scherf et al.
# Submitted via: audiograbber 1.82.02
#
DISCID=3103a004
DTITLE=Bonnie Raitt - Something To Talk About (Single)
DYEAR=1991
DGENRE=Country
TTITLE0=Something To Talk About
TTITLE1=One Part Be My Lover
TTITLE2=I Ain't Gonna Let You Break My Heart Again
TTITLE3=Nick Of Time
EXTD=
EXTT0=
EXTT1=
EXTT2=
EXTT3=
PLAYORDER=
